<?xml version="1.0" standalone="no"?>
<!DOCTYPE svg PUBLIC "-//W3C//DTD SVG 20010904//EN"
 "http://www.w3.org/TR/2001/REC-SVG-20010904/DTD/svg10.dtd">
<svg version="1.0" xmlns="http://www.w3.org/2000/svg"
 width="30.000000pt" height="30.000000pt" viewBox="0 0 30.000000 30.000000"
 preserveAspectRatio="xMidYMid meet">

<g transform="translate(0.000000,30.000000) scale(0.100000,-0.100000)"
fill="#000000" stroke="none">
<path d="M95 286 c-112 -50 -121 -205 -16 -264 48 -27 90 -28 139 -3 97 50
104 185 11 253 -33 24 -97 31 -134 14z m90 -86 c4 -11 11 -18 16 -15 15 10 10
-14 -8 -42 -10 -15 -18 -31 -18 -37 -1 -27 -17 -76 -25 -76 -8 0 -24 49 -25
76 0 6 -8 22 -18 37 -19 29 -23 52 -7 42 6 -3 10 -2 10 4 0 8 40 28 62 30 4 1
10 -8 13 -19z"/>
</g>
</svg>
